<svg width="25" height="25" viewBox="0 0 25 25" fill="none" xmlns="http://www.w3.org/2000/svg">
<path d="M20.5 3.5H4.5C2.8 3.5 1.5 4.8 1.5 6.5V18.5C1.5 20.2 2.8 21.5 4.5 21.5H20.5C22.2 21.5 23.5 20.2 23.5 18.5V6.5C23.5 4.8 22.2 3.5 20.5 3.5ZM3.5 9.2L8.4 13L3.5 17.9V9.2ZM4.5 19.5C4.4 19.5 4.2 19.5 4.1 19.4L9.5 14L10.2 14.5C10.9 15 11.7 15.3 12.5 15.3C13.3 15.3 14.1 15 14.8 14.5H14.9L20 19.6H4.5V19.5ZM21.5 18.5C21.5 18.6 21.5 18.8 21.4 18.9L16.1 13.5L21.5 9.2V18.5ZM21.5 7.3L13.9 13.3C13.1 13.9 11.9 13.9 11.1 13.3L3.5 7.3V6.5C3.5 5.9 3.9 5.5 4.5 5.5H20.5C21.1 5.5 21.5 5.9 21.5 6.5V7.3Z" fill="#000"/>
</svg>
