<svg width="25" height="22" viewBox="0 0 25 22" fill="none" xmlns="http://www.w3.org/2000/svg">
<g clip-path="url(#clip0_1_106)">
<g clip-path="url(#clip1_1_106)">
<path d="M7.30999 0.618164H17.6938C19.0707 0.618164 20.3913 1.16516 21.365 2.13883C22.3386 3.1125 22.8856 4.43308 22.8856 5.81005V16.1938C22.8856 17.5708 22.3386 18.8914 21.365 19.865C20.3913 20.8387 19.0707 21.3857 17.6938 21.3857H7.30999C5.93302 21.3857 4.61244 20.8387 3.63877 19.865C2.6651 18.8914 2.1181 17.5708 2.1181 16.1938V5.81005C2.1181 4.43308 2.6651 3.1125 3.63877 2.13883C4.61244 1.16516 5.93302 0.618164 7.30999 0.618164Z" stroke="#000" stroke-width="1.23616" stroke-linecap="round" stroke-linejoin="round"/>
<path d="M16.6529 10.3445C16.781 11.2084 16.6334 12.0908 16.2312 12.866C15.8289 13.6412 15.1925 14.2699 14.4123 14.6625C13.6322 15.0552 12.7481 15.1918 11.8858 15.0531C11.0236 14.9143 10.227 14.5072 9.60943 13.8896C8.99186 13.2721 8.58475 12.4755 8.44599 11.6132C8.30724 10.751 8.44391 9.86687 8.83656 9.08675C9.22922 8.30662 9.85786 7.67016 10.6331 7.26791C11.4083 6.86565 12.2906 6.71808 13.1546 6.84618C14.0358 6.97685 14.8517 7.38749 15.4816 8.01745C16.1116 8.6474 16.5222 9.46327 16.6529 10.3445Z" stroke="#000" stroke-width="1.23616" stroke-linecap="round" stroke-linejoin="round"/>
</g>
</g>
<defs>
<clipPath id="clip0_1_106">
<rect width="25" height="22" fill="white"/>
</clipPath>
<clipPath id="clip1_1_106">
<rect width="22" height="22" fill="white" transform="translate(1.5)"/>
</clipPath>
</defs>
</svg>
