<svg width="25" height="25" viewBox="0 0 25 25" fill="none" xmlns="http://www.w3.org/2000/svg">
<g clip-path="url(#clip0_2216_114006)">
<path d="M22.598 16.6008L19.898 13.9008C19.198 13.2008 18.198 13.1008 17.398 13.6008L15.498 14.8008C15.0981 15.0008 14.5981 15.0008 14.298 14.7008L10.0981 10.5008C9.69805 10.2008 9.69805 9.70078 9.89805 9.30078L11.0981 7.40078C11.5981 6.60078 11.498 5.50078 10.898 4.90078L8.09805 2.20078C6.89805 1.00078 4.99805 1.00078 3.89805 2.20078L2.79805 3.20078C0.498049 5.60078 1.29805 9.60078 4.99805 14.3008C5.79805 15.3008 6.59805 16.2008 7.59805 17.2008C8.49805 18.1008 9.49805 19.0008 10.398 19.7008C13.298 22.0008 15.998 23.2008 18.198 23.2008C19.498 23.2008 20.698 22.8008 21.598 21.9008L22.698 20.8008C23.698 19.7008 23.698 17.8008 22.598 16.6008ZM6.69805 3.60078L9.49805 6.30078L8.89805 7.20078L5.29805 3.60078C5.69805 3.20078 6.29805 3.20078 6.69805 3.60078ZM11.5981 18.2008C10.6981 17.5008 9.79805 16.7008 8.89805 15.8008C7.99805 14.9008 7.19805 14.0008 6.49805 13.1008C3.59805 9.30078 2.69805 6.20078 4.19805 4.60078L4.49805 4.30078L8.19805 8.00078L8.29805 8.20078C7.49805 9.40078 7.69805 10.9008 8.69805 11.9008L12.898 16.1008C13.898 17.1008 15.498 17.3008 16.5981 16.5008L16.6981 16.4008L20.398 20.1008L20.098 20.5008C18.598 22.0008 15.3981 21.2008 11.5981 18.2008ZM21.198 19.4008L17.598 15.8008L18.498 15.2008L21.198 17.9008C21.498 18.4008 21.498 19.0008 21.198 19.4008Z" fill="#000"/>
</g>
<defs>
<clipPath id="clip0_2216_114006">
<rect width="24" height="24" fill="white" transform="translate(0.5 0.5)"/>
</clipPath>
</defs>
</svg>
